<?xml version="1.0" encoding="UTF-8"?>
<svg version="1.1" xmlns="http://www.w3.org/2000/svg" width="526" height="435">
<path d="M0 0 C8.58 0 17.16 0 26 0 C26.33 19.47 26.66 38.94 27 59 C28.65 56.03 30.3 53.06 32 50 C39.32195172 40.00356293 48.65403734 33.95210232 61 32 C76.11223955 30.55886091 90.32679013 31.61989592 102.77734375 41.07421875 C108.03395108 45.62871333 112.36308862 50.48527777 115 57 C115 57.66 115 58.32 115 59 C115.66 59 116.32 59 117 59 C117.16822266 57.91332031 117.16822266 57.91332031 117.33984375 56.8046875 C119.28239246 48.55172909 125.06903234 41.64421982 132 37 C142.04176181 30.93181878 153.84678286 30.10764837 165.1640625 32.734375 C170.47725612 34.69271223 176.37359407 37.74718814 179 43 C179.33 40.03 179.66 37.06 180 34 C188.25 34 196.5 34 205 34 C205.33 42.91 205.66 51.82 206 61 C207.98 57.04 209.96 53.08 212 49 C220.1525707 39.36514372 230.51836593 32.99915057 243.30249023 31.78051758 C259.74351078 30.98166184 272.93152157 33.33642554 285.6875 44.3125 C297.4831467 58.02095427 299.1417359 71.68923166 298.22753906 89.30908203 C297.28237955 100.48670882 291.7949522 109.60965289 283.8125 117.25 C272.0425301 127.18029393 257.88227843 129.13186003 243 128 C231.31779916 126.36063455 220.47940963 121.29555871 213 112 C210.02632567 107.84478574 207.86965058 103.75103163 206 99 C205.98541748 99.71953857 205.97083496 100.43907715 205.95581055 101.18041992 C205.11129685 138.46137255 205.11129685 138.46137255 192.875 150.25 C181.05631123 159.56012682 164.55912368 161.21835296 150.03515625 159.6875 C138.66372792 158.08144707 128.71554938 153.93848978 121.32421875 144.859375 C117.80697143 139.92070325 117 136.22742725 117 130 C125.58 130 134.16 130 143 130 C143.99 131.98 144.98 133.96 146 136 C152.49572857 141.0071241 157.99549125 141.76545849 166 141 C170.73449714 139.69879714 173.88686563 137.73587494 176.4375 133.5 C178.76197272 128.29318111 179.11561289 124.48619258 179.0625 118.75 C179.05347656 117.48671875 179.04445313 116.2234375 179.03515625 114.921875 C179.02355469 113.95765625 179.01195312 112.9934375 179 112 C178.50371094 112.47050781 178.00742187 112.94101563 177.49609375 113.42578125 C168.82479896 121.37309697 161.03921021 123.33356703 149.3515625 123.21484375 C138.91692757 122.5459569 130.74951115 118.18868407 123.6875 110.625 C120.53175365 106.92366292 118.56279 103.59069563 117 99 C116.63648438 99.71285156 116.27296875 100.42570312 115.8984375 101.16015625 C109.61483403 113.13122645 102.36480682 121.28965337 89.1875 125.875 C75.1008969 130.17999669 59.95008036 128.87936734 46.6875 122.6875 C37.38057053 117.64748548 30.4126565 110.23796951 27 100 C26.67 108.25 26.34 116.5 26 125 C17.42 125 8.84 125 0 125 C0 83.75 0 42.5 0 0 Z M54.44140625 59.6484375 C48.9862303 68.54820965 48.80386566 79.77335501 50.46875 89.83203125 C52.34645238 97.10812798 55.75701737 102.96518737 62.1875 107 C69.36330054 108.88217719 76.62041859 109.28910994 83.21484375 105.45703125 C88.81400706 100.88703581 92.25218616 94.14577669 93 87 C93.69843531 76.51077148 93.60542939 66.08871499 86.875 57.5 C82.46740315 52.94299309 77.62700614 51.54405092 71.5 50.625 C64.18949647 51.72157553 59.10238788 53.70054911 54.44140625 59.6484375 Z M147.2734375 55.48046875 C140.31279766 62.97258601 139.4938477 70.44026308 139.7109375 80.3671875 C140.27706433 87.48202471 142.37434233 93.47490889 147 99 C151.97253487 102.85625153 156.00657262 103.69445875 162.28125 103.453125 C167.8054585 102.53242358 171.39008478 99.566404 175.3125 95.75 C180.56536062 87.18978269 181.23470603 77.96795342 179.49609375 68.15625 C177.72807478 61.44788088 175.14917366 57.07559173 169.25 53.1875 C161.4627769 50.34216848 153.88894341 49.80789694 147.2734375 55.48046875 Z M237.1875 56.25 C229.14008058 66.36675584 229.07211247 76.52802172 230 89 C231.32788865 96.46831639 234.20550338 101.03051903 240.09765625 105.7578125 C245.16028417 109.06359418 251.19333101 108.40870313 257 108 C263.07040189 106.08894755 266.92456225 101.66017123 270.0078125 96.22265625 C274.57317941 85.74004194 273.59037754 73.58901203 270 63 C267.19846005 57.61115552 263.87008464 53.95669488 258 52 C250.20372507 50.12475963 243.51335713 51.1893143 237.1875 56.25 Z " fill="#363636" transform="translate(124,135)"/>
<path d="M0 0 C0.66 0.33 1.32 0.66 2 1 C-2.29 5.29 -6.58 9.58 -11 14 C-11 10.09572976 -9.78171026 9.2747714 -7.1875 6.4375 C-6.47980469 5.65246094 -5.77210938 4.86742187 -5.04296875 4.05859375 C-3 2 -3 2 0 0 Z " fill="#737373" transform="translate(167,174)"/>
<path d="M0 0 C0.66 0.33 1.32 0.66 2 1 C-1.96 4.96 -5.92 8.92 -10 13 C-10 9.28115772 -9.1259934 8.63852271 -6.6875 5.9375 C-5.76517578 4.89916016 -5.76517578 4.89916016 -4.82421875 3.83984375 C-3 2 -3 2 0 0 Z " fill="#797979" transform="translate(256,172)"/>
</svg>
